# xmcd
#
# Track frame offsets:
#	150
#	21271
#	35784
#	59773
#	74352
#	93976
#	115895
#	135420
#	145748
#	158971
#	172384
#	209571
#
# Disc length: 3112 seconds
#
# Revision: 1
# Processed by: cddbd v1.5PL3 Copyright (c) Steve Scherf et al.
# Submitted via: audiograbber 1.83.01
#
DISCID=bb0c260c
DTITLE=Danny Eyer - Whatever It Takes
DYEAR=2004
DGENRE=Blues
TTITLE0=What Makes Me So Weak
TTITLE1=Whiskey Woman
TTITLE2=Raise Your Glass
TTITLE3=Big Problem
TTITLE4=Whatever It Takes
TTITLE5=Nightime Relief
TTITLE6=LoveThe One You're With
TTITLE7=Everything Hurts
TTITLE8=That's What Happened There
TTITLE9=Me and The Boys
TTITLE10=I'm Sorry
TTITLE11=Where The Hell's My Train
EXTD=
EXTT0=
EXTT1=
EXTT2=
EXTT3=
EXTT4=
EXTT5=
EXTT6=
EXTT7=
EXTT8=
EXTT9=
EXTT10=
EXTT11=
PLAYORDER=
